<svg xmlns="http://www.w3.org/2000/svg" xml:space="preserve" width="8.33333in" height="8.33333in" version="1.1" style="shape-rendering:geometricPrecision; text-rendering:geometricPrecision; image-rendering:optimizeQuality; fill-rule:evenodd; clip-rule:evenodd" viewBox="0 0 8333 8333" xmlns:xlink="http://www.w3.org/1999/xlink">
 <defs>
  <style type="text/css">
   
    .fil0 {fill:none}
    .fil1 {fill:url(#id0)}
   
  </style>
  <linearGradient id="id0" gradientUnits="userSpaceOnUse" x1="4166.67" y1="613.272" x2="4166.67" y2="7720.06">
   <stop offset="0" style="stop-opacity: 1; stop-color: rgb(255, 151, 29);" id="id_103"></stop>
   <stop offset="0.509804" style="stop-opacity: 1; stop-color: rgb(196, 196, 196);" id="id_104"></stop>
   <stop offset="1" style="stop-opacity: 1; stop-color: rgb(196, 196, 196);" id="id_105"></stop>
  </linearGradient>
 </defs>
 <rect class="fil0" width="8333" height="8333" id="id_101"></rect>
 <g id="Layer_x0020_1">
  <metadata id="CorelCorpID_0Corel-Layer"></metadata>
  <path class="fil1" d="M6446 7720l-4635 0c-243,0 -441,-200 -441,-441l0 -462 -139 0c-252,0 -461,-209 -461,-461 0,-255 207,-462 461,-462l139 0 0 -536 -139 0c-252,0 -461,-209 -461,-462 0,-254 207,-461 461,-461l139 0 0 -537 -139 0c-254,0 -461,-206 -461,-461 0,-252 209,-461 461,-461l139 0 0 -537 -139 0c-254,0 -461,-207 -461,-461 0,-253 209,-462 461,-462l139 0 0 -461c0,-243 199,-442 441,-442l4635 0c245,0 444,198 444,442l0 951 409 0c146,0 264,119 264,265l0 716c0,146 -118,265 -264,265l-409 0 0 293 409 0c146,0 264,118 264,262l0 720c0,144 -118,261 -264,261l-409 0 0 293 409 0c146,0 264,119 264,265l0 716c0,146 -118,265 -264,265l-409 0 0 952c0,243 -199,441 -444,441zm-1421 -1829l0 -542c0,-68 56,-124 125,-124l499 0c69,0 125,56 125,124l0 542 343 0 0 -711c0,-186 -91,-362 -255,-497 -173,-141 -402,-218 -646,-218l-343 0c-57,0 -106,-39 -121,-92l-34 -126c-129,35 -234,28 -365,28 -72,0 -143,-9 -212,-28l-32 118c-14,60 -62,100 -123,100l-342 0c-246,0 -475,77 -647,218 -164,134 -255,311 -255,497l0 711 340 0 0 -542c0,-68 56,-124 125,-124l500 0c69,0 125,56 125,124l0 542 1193 0zm499 0l0 -417 -249 0 0 417 249 0zm-1942 0l0 -417 -250 0 0 417 250 0zm1489 -2989l0 -58c0,-221 -180,-402 -401,-402l-867 0c-8,0 -18,9 -18,15l0 445 58 0c89,0 157,-30 208,-93 38,-47 51,-93 52,-93 17,-67 85,-107 152,-90 47,13 81,50 91,95 4,13 20,55 54,94 49,58 117,88 203,87l468 0zm-1536 125l0 -570c0,-146 123,-264 268,-264l867 0c359,0 651,292 651,651l0 616c0,287 -148,539 -372,684l19 71 248 0c635,0 1151,433 1151,965l0 836c0,69 -56,125 -125,125l-3625 0c-69,0 -125,-56 -125,-125l0 -836c0,-273 134,-517 347,-690 216,-177 502,-275 805,-275l247 0 19 -70c-232,-151 -375,-406 -375,-685l0 -433zm688 -35c-73,79 -193,160 -380,160l-58 0 0 308c0,312 255,565 568,565l154 0c311,0 564,-253 564,-565l0 -308 -468 0c-188,0 -308,-81 -380,-160zm2667 2339l0 746 409 0c7,0 15,-7 15,-15l0 -716c0,-8 -8,-15 -15,-15l-409 0zm0 -1536l0 743 409 0c7,0 15,-4 15,-11l0 -720c0,-8 -8,-12 -15,-12l-409 0zm0 -1539l0 746 409 0c7,0 15,-7 15,-15l0 -716c0,-8 -8,-15 -15,-15l-409 0zm-5396 4311l264 0c114,0 211,-97 211,-211 0,-117 -95,-212 -211,-212l-527 0c-116,0 -211,95 -211,212 0,114 97,211 211,211l263 0zm125 250l0 462c0,104 88,191 192,191l4635 0c107,0 195,-86 195,-191l0 -6224c0,-106 -88,-192 -195,-192l-4635 0c-104,0 -192,88 -192,192l0 461 139 0c252,0 461,209 461,462 0,254 -207,461 -461,461l-139 0 0 537 139 0c252,0 461,209 461,461 0,255 -207,461 -461,461l-139 0 0 537 139 0c254,0 461,207 461,461 0,253 -209,462 -461,462l-139 0 0 536 139 0c254,0 461,207 461,462 0,252 -209,461 -461,461l-139 0zm-388 -2132c-116,0 -211,95 -211,211 0,115 97,212 211,212l527 0c114,0 211,-97 211,-212 0,-116 -95,-211 -211,-211l-527 0zm0 -1460c-114,0 -211,97 -211,212 0,117 95,212 211,212l527 0c116,0 211,-95 211,-212 0,-115 -97,-212 -211,-212l-527 0zm264 -1459l-264 0c-114,0 -211,97 -211,212 0,116 95,211 211,211l527 0c116,0 211,-95 211,-211 0,-115 -97,-212 -211,-212l-263 0z" id="id_102"></path>
 </g>
</svg>