<svg xmlns="http://www.w3.org/2000/svg" xml:space="preserve" width="1.70666in" height="1.70666in" version="1.1" style="shape-rendering:geometricPrecision; text-rendering:geometricPrecision; image-rendering:optimizeQuality; fill-rule:evenodd; clip-rule:evenodd" viewBox="0 0 1707 1707" xmlns:xlink="http://www.w3.org/1999/xlink">
 <defs>
  <style type="text/css">
   
    .fil0 {fill:black}
   
  </style>
 </defs>
 <g id="Layer_x0020_1">
  <metadata id="CorelCorpID_0Corel-Layer"></metadata>
  <g id="_355090264">
   <g>
    <g id="_355092592">
     <path class="fil0" d="M1233 1644l-1210 0c-12,0 -23,-10 -23,-23l0 -1275c0,-13 11,-23 23,-23l275 0 0 -237c0,-13 11,-23 24,-23l911 0c12,0 23,10 23,23l0 767c0,13 -11,23 -23,23 -13,0 -24,-10 -24,-23l0 -744 -864 0 0 237c0,13 -11,23 -23,23l-275 0 0 1228 1162 0 0 -349c0,-13 11,-24 24,-24 12,0 23,11 23,24l0 373c0,13 -11,23 -23,23z" id="id_101" style="fill: rgb(255, 151, 29);"></path>
    </g>
    <g id="_355095400">
     <path class="fil0" d="M322 369l-299 0c-9,0 -18,-6 -21,-15 -4,-9 -1,-19 6,-26l298 -260c7,-6 17,-7 25,-3 9,3 14,12 14,21l0 260c0,13 -11,23 -23,23zm-236 -46l212 0 0 -186 -212 186z" id="id_102" style="fill: rgb(255, 151, 29);"></path>
    </g>
    <g>
     <g>
      <g id="_355089712">
       <path class="fil0" d="M1160 1397c-4,0 -8,-1 -12,-3l-171 -99c-11,-7 -14,-21 -8,-32l468 -811c7,-11 21,-15 32,-9l171 99c5,3 9,8 11,14 2,6 1,12 -2,18l-469 811c-3,5 -8,9 -14,11 -2,0 -4,1 -6,1zm-139 -131l131 75 445 -770 -131 -76 -445 771z" id="id_103" style="fill: rgb(255, 255, 255);"></path>
      </g>
      <g id="_355092616">
       <path class="fil0" d="M960 1544c-4,0 -8,-1 -12,-3 -8,-5 -12,-14 -11,-23l29 -246c2,-13 13,-22 26,-21 13,2 22,14 20,26l-23 193 157 -115c11,-8 25,-6 33,4 7,11 5,25 -5,33l-200 148c-4,3 -9,4 -14,4z" id="id_104" style="fill: rgb(255, 255, 255);"></path>
      </g>
     </g>
     <g id="_355090096">
      <path class="fil0" d="M1628 585c-4,0 -8,-1 -11,-3 -11,-6 -15,-20 -9,-32l43 -74 -130 -76 -43 75c-7,11 -21,15 -32,9 -11,-7 -15,-21 -9,-32l55 -95c7,-11 21,-15 32,-9l171 99c11,6 15,21 8,32l-54 95c-5,7 -13,11 -21,11z" id="id_105" style="fill: rgb(255, 255, 255);"></path>
     </g>
    </g>
    <g id="_355089640">
     <path class="fil0" d="M873 1583c-5,0 -10,-1 -15,-1 -19,-3 -46,-14 -66,-50 -32,-55 -157,-10 -198,10 -11,5 -25,1 -31,-11 -5,-12 -1,-25 11,-31 8,-4 198,-96 258,9 9,16 20,24 33,27 30,4 68,-23 79,-33 10,-8 25,-7 33,2 9,10 8,25 -2,33 -5,5 -51,45 -102,45z" id="id_106" style="fill: rgb(255, 255, 255);"></path>
    </g>
    <g id="_355089856">
     <path class="fil0" d="M877 1276l-765 0c-13,0 -23,-10 -23,-23 0,-13 10,-23 23,-23l765 0c13,0 23,10 23,23 0,13 -10,23 -23,23z" id="id_107" style="fill: rgb(255, 255, 255);"></path>
    </g>
    <g id="_355089760">
     <path class="fil0" d="M877 1377l-765 0c-13,0 -23,-11 -23,-24 0,-12 10,-23 23,-23l765 0c13,0 23,11 23,23 0,13 -10,24 -23,24z" id="id_108" style="fill: rgb(255, 255, 255);"></path>
    </g>
    <g id="_355089448">
     <path class="fil0" d="M521 1477l-409 0c-13,0 -23,-10 -23,-23 0,-13 10,-23 23,-23l409 0c13,0 23,10 23,23 0,13 -10,23 -23,23z" id="id_109" style="fill: rgb(255, 255, 255);"></path>
    </g>
    <g>
     <g id="_355089424">
      <path class="fil0" d="M1021 224l-488 0c-13,0 -24,-10 -24,-23 0,-13 11,-24 24,-24l488 0c13,0 24,11 24,24 0,13 -11,23 -24,23z" id="id_110" style="fill: rgb(255, 255, 255);"></path>
     </g>
     <g id="_355089184">
      <path class="fil0" d="M1021 322l-488 0c-13,0 -24,-10 -24,-23 0,-13 11,-23 24,-23l488 0c13,0 24,10 24,23 0,13 -11,23 -24,23z" id="id_111" style="fill: rgb(255, 255, 255);"></path>
     </g>
     <g id="_355089208">
      <path class="fil0" d="M1021 420l-488 0c-13,0 -24,-10 -24,-23 0,-13 11,-23 24,-23l488 0c13,0 24,10 24,23 0,13 -11,23 -24,23z" id="id_112" style="fill: rgb(255, 255, 255);"></path>
     </g>
    </g>
    <g>
     <g>
      <g id="_355088872">
       <path class="fil0" d="M1076 535l-685 0c-13,0 -23,-10 -23,-23 0,-13 10,-23 23,-23l685 0c13,0 23,10 23,23 0,13 -10,23 -23,23z" id="id_113" style="fill: rgb(196, 196, 196);"></path>
      </g>
      <g id="_355088992">
       <path class="fil0" d="M1076 710l-685 0c-13,0 -23,-11 -23,-24 0,-12 10,-23 23,-23l685 0c13,0 23,11 23,23 0,13 -10,24 -23,24z" id="id_114" style="fill: rgb(196, 196, 196);"></path>
      </g>
      <g id="_355088824">
       <path class="fil0" d="M1076 884l-685 0c-13,0 -23,-10 -23,-23 0,-13 10,-23 23,-23l685 0c13,0 23,10 23,23 0,13 -10,23 -23,23z" id="id_115" style="fill: rgb(196, 196, 196);"></path>
      </g>
      <g id="_355088584">
       <path class="fil0" d="M1076 1059l-685 0c-13,0 -23,-11 -23,-24 0,-13 10,-23 23,-23l685 0c13,0 23,10 23,23 0,13 -10,24 -23,24z" id="id_116" style="fill: rgb(196, 196, 196);"></path>
      </g>
     </g>
     <g>
      <g id="_355090000">
       <path class="fil0" d="M300 586l-120 0c-13,0 -24,-10 -24,-23l0 -102c0,-13 11,-23 24,-23l120 0c13,0 23,10 23,23l0 102c0,13 -10,23 -23,23zm-97 -47l74 0 0 -55 -74 0 0 55z" id="id_117" style="fill: rgb(196, 196, 196);"></path>
      </g>
      <g id="_355086784">
       <path class="fil0" d="M300 760l-120 0c-13,0 -24,-10 -24,-23l0 -101c0,-13 11,-24 24,-24l120 0c13,0 23,11 23,24l0 101c0,13 -10,23 -23,23zm-97 -46l74 0 0 -55 -74 0 0 55z" id="id_118" style="fill: rgb(196, 196, 196);"></path>
      </g>
      <g id="_355088416">
       <path class="fil0" d="M300 935l-120 0c-13,0 -24,-11 -24,-23l0 -102c0,-13 11,-23 24,-23l120 0c13,0 23,10 23,23l0 102c0,12 -10,23 -23,23zm-97 -47l74 0 0 -55 -74 0 0 55z" id="id_119" style="fill: rgb(196, 196, 196);"></path>
      </g>
      <g id="_355088176">
       <path class="fil0" d="M300 1109l-120 0c-13,0 -24,-10 -24,-23l0 -101c0,-13 11,-24 24,-24l120 0c13,0 23,11 23,24l0 101c0,13 -10,23 -23,23zm-97 -46l74 0 0 -55 -74 0 0 55z" id="id_120" style="fill: rgb(196, 196, 196);"></path>
      </g>
     </g>
    </g>
   </g>
  </g>
 </g>
</svg>