<svg id="Gradient" xmlns="http://www.w3.org/2000/svg" xmlns:xlink="http://www.w3.org/1999/xlink" viewBox="0 0 64 64"><defs><linearGradient id="linear-gradient" x1="5.793" y1="5.793" x2="58.207" y2="58.207" gradientUnits="userSpaceOnUse"><stop offset="0" stop-color="#ff971d" id="id_102"></stop><stop offset="0.437" stop-color="#c4c4c4" id="id_103"></stop><stop offset="1" stop-color="#ffffff" id="id_104"></stop></linearGradient></defs><path d="M3,55H61a1,1,0,0,0,1-1V10a1,1,0,0,0-1-1H3a1,1,0,0,0-1,1V54A1,1,0,0,0,3,55Zm1-2V17H60V53ZM4,11H6v2H8V11h2v2h2V11h2v2h2V11H60v4H4ZM32,41A11,11,0,1,0,21,30,11.013,11.013,0,0,0,32,41Zm0-20a9,9,0,1,1-9,9A9.01,9.01,0,0,1,32,21ZM46,43H18a1,1,0,0,0-1,1v6a1,1,0,0,0,1,1H46a1,1,0,0,0,1-1V44A1,1,0,0,0,46,43Zm-1,6H19V45H45ZM23,48H21V46h2Zm4,0H25V46h2Zm4,0H29V46h2Zm4,0H33V46h2Zm4,0H37V46h2Zm4,0H41V46h2ZM28,36h8a1,1,0,0,0,1-1V28a5,5,0,0,0-10,0v7A1,1,0,0,0,28,36Zm7-2H29V30h6Zm-3-9a3,3,0,0,1,3,3H29A3,3,0,0,1,32,25Zm1,8H31V31h2Z" style="fill:url(#linear-gradient)" id="id_101"></path></svg>